<svg viewBox="0 0 512 512" xmlns="http://www.w3.org/2000/svg"><path d="m336 80h-32a32 32 0 0 1 0-64h72a8 8 0 0 1 0 16h-72a16 16 0 0 0 0 32h32a8 8 0 0 1 0 16z" fill="#c7463b"/><path d="m394.051 196.242-13.433-3.562 12.78-11.289a8 8 0 1 0 -10.591-11.991l-12.781 11.289-1.877-13.769a8 8 0 1 0 -15.853 2.162l3.9 28.58a8 8 0 0 0 5.876 6.651l27.881 7.395a8 8 0 0 0 4.1-15.465z" fill="#05b093"/><path d="m319.351 278.822-63.351-30.822 62.951-54.218a32 32 0 0 1 45.169 2.8 32 32 0 0 1 -2.8 45.168z" fill="#fd9226"/><path d="m327.437 247.651a8 8 0 0 1 -7.858-6.545l-8.494-45.868a8 8 0 0 1 15.732-2.913l8.5 45.868a8.007 8.007 0 0 1 -7.875 9.458z" fill="#e78244"/><path d="m56 452v36h32v-32h336v32h32v-36a28 28 0 0 0 -28-28h-344a28 28 0 0 0 -28 28z" fill="#c3c3c3"/><path d="m104 264h304a0 0 0 0 1 0 0v114a46 46 0 0 1 -46 46h-212a46 46 0 0 1 -46-46v-114a0 0 0 0 1 0 0z" fill="#0c82ed"/><path d="m302.78 464.41a42.459 42.459 0 0 1 -4.49 19.01l-2.29 4.58h-72l-9.58-33.52a42.544 42.544 0 0 1 9.11-39.95l43.52-48.96 4.95-5.57 6.19 49.52a42.525 42.525 0 0 0 12.13 24.8 42.524 42.524 0 0 1 12.46 30.09z" fill="#fbb540"/><path d="m224 488h-64l-1.26-5.04a91.525 91.525 0 0 1 33.88-95.42l7.85-5.89 7.53-5.65-6.11 18.33a91.551 91.551 0 0 0 22.11 93.67z" fill="#fbb540"/><path d="m360 488h-64l8.97-10.77a69.785 69.785 0 0 0 6.98-79.31l-5-8.76-2.95-5.16 27.76 16.65a69.8 69.8 0 0 1 28.24 87.35z" fill="#fbb540"/><path d="m297.13 464.42a42.449 42.449 0 0 1 -4.49 19l-2.29 4.58h-66.35l-9.58-33.52a42.544 42.544 0 0 1 9.11-39.95l43.52-48.96 5.49 43.95a42.525 42.525 0 0 0 12.13 24.8 42.53 42.53 0 0 1 12.46 30.1z" fill="#f55648"/><path d="m218.35 488h-58.35l-1.26-5.04a91.525 91.525 0 0 1 33.88-95.42l7.85-5.89-4.23 12.68a91.509 91.509 0 0 0 22.11 93.67z" fill="#f55648"/><path d="m354.35 488h-58.35l8.97-10.77a69.785 69.785 0 0 0 6.98-79.31l-5-8.76 19.15 11.49a69.806 69.806 0 0 1 28.25 87.35z" fill="#f55648"/><rect fill="#c3c3c3" height="32" rx="16" width="336" x="88" y="232"/><path d="m104 320h-24l-8-24h-32v-32h64z" fill="#c3c3c3"/><path d="m408 320h24l8-24h32v-32h-64z" fill="#c3c3c3"/><path d="m240 136h32v32h-32z" fill="#ffae96"/><rect fill="#c36f53" height="32" rx="16" width="64" x="224" y="104"/><path d="m328 64 17.591 29.319a22 22 0 0 0 18.865 10.681h35.544v32h44a20 20 0 0 0 20-20v-32a20 20 0 0 0 -20-20z" fill="#dc4d41"/><path d="m464 88v28a19.967 19.967 0 0 1 -10.44 17.56l-29.56-29.56z" fill="#dc4d41"/><g fill="#c7463b"><path d="m400 136h-40l16-16-11.544-16h35.544z"/><path d="m392 64h32v40h-32z"/><path d="m464 88v28a19.967 19.967 0 0 1 -10.44 17.56l-29.56-29.56z"/><circle cx="368" cy="80" r="6"/></g><path d="m84.739 30.672a48 48 0 0 1 48 48 0 0 0 0 1 0 0h-96a0 0 0 0 1 0 0 48 48 0 0 1 48-48z" fill="#dc4d41" transform="matrix(.72198971 -.69190379 .69190379 .72198971 -14.27 73.831)"/><path d="m93.042 51.336a24 24 0 0 1 24 24 0 0 0 0 1 0 0h-48a0 0 0 0 1 0 0 24 24 0 0 1 24-24z" fill="#f55648" transform="matrix(.72198971 -.69190379 .69190379 .72198971 -17.956 81.984)"/><path d="m133.447 196.429-7.925-2.919a57.887 57.887 0 0 1 -37.522-47.927 57.89 57.89 0 0 1 59.647-12.127l7.925 2.92a57.887 57.887 0 0 1 37.522 47.924 57.885 57.885 0 0 1 -59.647 12.129z" fill="#05b093"/><path d="m188.354 174.03-41.932-15.449-12.834-27.808a8 8 0 1 0 -14.527 6.705l6.129 13.281-34.424-12.683a8 8 0 1 0 -5.532 15.014l61.6 22.7-18.318 14.34a8 8 0 1 0 9.863 12.6l26.108-20.441 18.335 6.755a8 8 0 1 0 5.532-15.013z" fill="#03816b"/><path d="m216 184h16v16h-16z" fill="#c1e3f7"/><path d="m40 152h16v16h-16z" fill="#569fe6"/><path d="m72 192h16v16h-16z" fill="#c1e3f7"/><path d="m184 120h16v16h-16z" fill="#569fe6"/><path d="m128 88h16v16h-16z" fill="#c1e3f7"/><path d="m424 176h16v16h-16z" fill="#c1e3f7"/><path d="m320 136h16v16h-16z" fill="#569fe6"/><path d="m296 160h16v16h-16z" fill="#c1e3f7"/><path d="m248 192h16v16h-16z" fill="#569fe6"/><path d="m104 304h64v16h-64z" fill="#009cf7"/><path d="m184 304h48v16h-48z" fill="#009cf7"/><path d="m104 344h88v16h-88z" fill="#009cf7"/><path d="m208 344h24v16h-24z" fill="#009cf7"/><path d="m88 264h16v56h-16z" fill="#a8a8a8"/><path d="m408 264h16v56h-16z" fill="#a8a8a8"/><path d="m104 264h304v16h-304z" fill="#0a71cd"/><path d="m40 304h26.234l6.176 18.53a8 8 0 0 0 7.59 5.47h16v50a53.823 53.823 0 0 0 15.676 38h-27.676a36.04 36.04 0 0 0 -36 36v36a8 8 0 0 0 8 8h32a8 8 0 0 0 8-8v-24h52.055a99.924 99.924 0 0 0 2.924 20.9l1.26 5.041a8 8 0 0 0 7.761 6.059h200a8 8 0 0 0 7.354-4.849 77.092 77.092 0 0 0 6.166-27.151h42.48v24a8 8 0 0 0 8 8h32a8 8 0 0 0 8-8v-36a36.04 36.04 0 0 0 -36-36h-27.676a53.823 53.823 0 0 0 15.676-38v-50h16a8 8 0 0 0 7.59-5.47l6.176-18.53h26.234a8 8 0 0 0 8-8v-32a8 8 0 0 0 -8-8h-41.376a23.992 23.992 0 0 0 -22.624-32h-28.354a39.963 39.963 0 0 0 -.533-15.167l10.836 2.874a8 8 0 0 0 4.1-15.465l-13.433-3.562 12.78-11.289a8 8 0 1 0 -10.589-11.991l-12.781 11.289-1.877-13.769a8 8 0 1 0 -15.853 2.162l1.514 11.1a40.034 40.034 0 0 0 -40.155 7.6l-41 36.214h-168.655a23.992 23.992 0 0 0 -22.624 32h-41.376a8 8 0 0 0 -8 8v32a8 8 0 0 0 8 8.004zm48 144a8 8 0 0 0 -8 8v24h-16v-28a20.023 20.023 0 0 1 20-20h68.224a99.319 99.319 0 0 0 -3.424 16zm78.252 32a83.372 83.372 0 0 1 4.5-52.186 8.113 8.113 0 0 0 .48-1.09 83.356 83.356 0 0 1 21.234-28.769 98.788 98.788 0 0 0 14.434 82.045zm143.286-26.763a50.415 50.415 0 0 0 -10.517-21.237h14.062a62.437 62.437 0 0 1 -3.545 21.237zm-24.874-13.26a34.5 34.5 0 0 1 6.47 39.868l-.077.155h-61.023l-7.92-27.722a34.373 34.373 0 0 1 7.395-32.434l36.742-41.335 4 32a50.788 50.788 0 0 0 14.413 29.468zm-78.955-6.859c-.043-.372-.086-.745-.125-1.118h.343c-.08.371-.145.745-.218 1.118zm148.778 46.882h-41.487a78.146 78.146 0 0 0 15.609-56.025 8.012 8.012 0 0 0 -.2-1.751 77.589 77.589 0 0 0 -4.126-16.724l3.356 2.014a62.056 62.056 0 0 1 26.848 72.486zm93.513-28v28h-16v-24a8 8 0 0 0 -8-8h-51.469a78.737 78.737 0 0 0 -4.416-16h59.885a20.023 20.023 0 0 1 20 20zm-88.428-36a77.09 77.09 0 0 0 -23.7-22.206l-27.756-16.654a8 8 0 0 0 -11.062 10.829l7.954 13.92a61.141 61.141 0 0 1 5.853 14.111h-22.921a34.376 34.376 0 0 1 -1.812-7.475l-6.19-49.517a8 8 0 0 0 -13.917-4.323l-48.471 54.529a51.041 51.041 0 0 0 -5.066 6.786h-7a84.4 84.4 0 0 1 4-19.136l6.111-18.334a8 8 0 0 0 -12.39-8.93l-15.381 11.536a99.486 99.486 0 0 0 -29.21 34.864h-8.614a38.043 38.043 0 0 1 -38-38v-18h80v-16h-80v-24h56v-16h-56v-32h288v106a38.043 38.043 0 0 1 -38 38zm104.428-128h-24a8 8 0 0 0 -7.59 5.47l-6.176 18.53h-10.234v-40h48zm-105.883-86.131.006.007.006.007a23.975 23.975 0 0 1 5.171 22.117h-30.62l-4.958-26.771a24.035 24.035 0 0 1 30.395 4.64zm-44.459 7.263 2.753 14.868h-19.586zm-217.658 38.868a8.009 8.009 0 0 1 8-8h304a8 8 0 0 1 0 16h-304a8.009 8.009 0 0 1 -8-8zm-48 24h48v40h-10.234l-6.176-18.53a8 8 0 0 0 -7.59-5.47h-24z"/><path d="m232 142.624v25.376a8 8 0 0 0 8 8h32a8 8 0 0 0 8-8v-25.376a24 24 0 0 0 -8-46.624h-32a24 24 0 0 0 -8 46.624zm32 17.376h-16v-16h16zm-24-48h32a8 8 0 0 1 0 16h-32a8 8 0 0 1 0-16z"/><path d="m304 80h24.271l10.46 17.435a30.172 30.172 0 0 0 21.394 14.235l5.4 7.488-11.185 11.185a8 8 0 0 0 5.66 13.657h84a28.032 28.032 0 0 0 28-28v-32a28.032 28.032 0 0 0 -28-28h-116a7.985 7.985 0 0 0 -7.994 8h-16.006a16 16 0 0 1 0-32h72a8 8 0 0 0 0-16h-72a32 32 0 0 0 0 64zm78.487 35.319-2.394-3.319h11.907v16h-12.687l2.344-2.343a8 8 0 0 0 .83-10.338zm17.513-43.319h16v24h-16zm8 40h12.686l16 16h-28.686zm45.962 10.681c-.1-.113-.2-.229-.305-.338l-15.422-15.421 17.765-7.106v16.184a11.929 11.929 0 0 1 -2.038 6.681zm1.952-40.063-23.914 9.566v-20.184h12a12.013 12.013 0 0 1 11.914 10.618zm-71.914-10.618v24h-19.544a14.067 14.067 0 0 1 -12-6.8l-8.843-14.738a8 8 0 0 0 .387-2.462z"/><circle cx="368" cy="80" r="6"/><path d="m66.69 113.211a7.972 7.972 0 0 0 5.535-2.224l69.31-66.423a8 8 0 0 0 .241-11.311 56 56 0 1 0 -80.862 77.494 7.976 7.976 0 0 0 5.776 2.464zm19.11-37.394a16.073 16.073 0 0 1 -.45-4.157 16 16 0 0 1 15.985-15.66h.35a16.093 16.093 0 0 1 4.134.627l-10.01 9.593zm-12.131-32.7a39.725 39.725 0 0 1 27.653-11.117c.29 0 .582 0 .873.009a39.722 39.722 0 0 1 21.919 7.091l-5.928 5.682a32.015 32.015 0 0 0 -44.754 42.887l-5.932 5.681a40.033 40.033 0 0 1 6.164-50.229z"/><path d="m216 184h16v16h-16z"/><path d="m40 152h16v16h-16z"/><path d="m72 192h16v16h-16z"/><path d="m184 120h16v16h-16z"/><path d="m128 88h16v16h-16z"/><path d="m424 176h16v16h-16z"/><path d="m320 136h16v16h-16z"/><path d="m296 160h16v16h-16z"/><path d="m248 192h16v16h-16z"/><path d="m184 304h48v16h-48z"/><path d="m208 344h24v16h-24z"/><path d="m201.046 183.418a65.532 65.532 0 0 0 -42.708-54.549l-7.925-2.92a65.531 65.531 0 0 0 -67.891 13.8 8 8 0 0 0 -2.473 6.714 65.528 65.528 0 0 0 42.708 54.551l7.925 2.92a66.219 66.219 0 0 0 22.915 4.111 65.551 65.551 0 0 0 44.975-17.915 8 8 0 0 0 2.474-6.712zm-48.239-39.536a49.585 49.585 0 0 1 28.847 27.68l-35.232-12.981-9.108-19.734a50.687 50.687 0 0 1 7.568 2.115zm-33.274-5.38 5.657 12.257-20.219-7.449a49.42 49.42 0 0 1 14.562-4.81zm-20.093 19.822 47.4 17.462-14.81 11.6-3.742-1.386a49.588 49.588 0 0 1 -28.848-27.676zm52.628 33.687 12.419-9.723 11.636 4.287a49.4 49.4 0 0 1 -24.055 5.436z"/></svg>