<svg height="64" viewBox="0 0 64 64" width="64" xmlns="http://www.w3.org/2000/svg"><g fill="none" fill-rule="evenodd"><g fill="#ececec"><rect height="24" rx="2" width="24" x="6" y="5"/><rect height="24" rx="2" width="24" x="6" y="33"/><rect height="24" rx="2" width="24" x="34" y="5"/><rect height="24" rx="2" width="24" x="34" y="33"/></g><circle cx="18" cy="17" fill="#ed9111" r="6"/><path d="m41 12h10v10h-10z" fill="#22ba8e" transform="matrix(.70710678 .70710678 -.70710678 .70710678 25.493903 -27.547727)"/><path d="m18 49-4.702 2.472.898-5.236-3.804-3.708 5.257-.764 2.351-4.764 2.351 4.764 5.257.764-3.804 3.708.898 5.236z" fill="#e43535"/><path d="m46 39 7 12h-14z" fill="#5b68c0"/></g></svg>