<svg viewBox="0 0 400 300" xmlns="http://www.w3.org/2000/svg"><path d="m166.85 106.25s-38.25 4.46-51.9 14.91-11 26.46 33.47 18.05 18.43-32.96 18.43-32.96z" fill="#68e1fd"/><path d="m166.85 106.25s-38.25 4.46-51.9 14.91-11 26.46 33.47 18.05 18.43-32.96 18.43-32.96z" opacity=".08"/><path d="m151.71 80a11.5 11.5 0 0 0 3.83-1.17c2-1 6.3-2 6.21 2.2-.06 2.67-4.21-.49-4.49 3.1s.23 8.13-7.18 7c-6.76-1.08-4.88-10.3 1.63-11.13z" fill="#f4a28c"/><ellipse cx="270.81" cy="58.65" fill="#24285b" rx="51.24" ry="43.77"/><ellipse cx="195.33" cy="263.48" fill="#e6e6e6" opacity=".45" rx="108.39" ry="15.39"/><g fill="#68e1fd"><path d="m240.27 246.12s-10.14-2.72-12.38-12.12c0 0 15.68-3.24 16.19 13z" opacity=".58"/><path d="m241.51 245.11s-7.12-11.15-.94-21.64c0 0 12 7.53 6.72 21.64z" opacity=".73"/><path d="m243.33 245.11s3.69-11.83 15-14.11c0 0 2.15 7.66-7.26 14.11z"/></g><path d="m235.99 244.88 2.11 14.03h12.93l1.84-14.03z" fill="#24285b"/><path d="m172.44 255.25s-1.43 4.22-5.21 4.6-4.72 4.11-1.29 5 12.13-3.63 12.13-3.63l-.37-6z" fill="#68e1fd"/><path d="m212.2 250.54s1.11 4.32-1.85 6.71-1.69 6 1.67 4.9 8.17-9.68 8.17-9.68l-3.28-4.38z" fill="#68e1fd"/><path d="m179.68 77.3s3.64 6.39 4.55 11.34a3.7 3.7 0 0 1 -3 4.3c-2.49.42-6 .27-8.36-2.92l-4.67-4.92a6.62 6.62 0 0 1 -.3-7.63c2.53-4.47 9.76-4.18 11.78-.17z" fill="#f4a28c"/><path d="m169.91 86.18.1 24.11 13.28-1.01-5.27-16.7z" fill="#f4a28c"/><path d="m181.77 81.45 3 1.72a1.17 1.17 0 0 1 .1 2l-2.33 1.66z" fill="#f4a28c"/><path d="m178.17 93.05a9 9 0 0 1 -4.49-1.74s-.46 5.26 6 6.52z" fill="#ce8172" opacity=".31"/><path d="m272.68 31.33c5.34.31 9.53 2 12.57 5a13.59 13.59 0 0 1 4.09 10.81 14.92 14.92 0 0 1 -2 7.32c-1.26 1.92-1.9 3.1-3.84 4.42a26.56 26.56 0 0 1 -4.66 2.73c-1.1.57-1.84.89-2.13 1.09-3 1.61-4.69 3.15-4.85 5.93-.1 1.78-.7 2.25-2.41 2.15l-2.85-.17c-1.71-.1-2.25-.63-2.15-2.41.36-6.06 3-8.83 7.53-11.5-.07 0 2.89-1.61 3-1.68a17.91 17.91 0 0 0 2.61-1.85 11.58 11.58 0 0 0 2-2.59 12 12 0 0 0 .86-3.6c.25-4.34-2.79-7.45-8.48-7.78-5.49-.32-8.53 1.71-10.79 6.08-.89 1.74-1.47 2-3.15 1.32l-3.35-1.41c-1.61-.59-2-1.69-1.32-3.15q5.34-11.52 19.32-10.71zm-4.53 43.25c3.42.2 4.49 1.41 4.29 4.82v.65c-.2 3.48-1.4 4.49-4.82 4.29h-.57c-3.42-.2-4.49-1.33-4.29-4.82v-.64c.2-3.42 1.4-4.49 4.82-4.29z" fill="#ffd200"/><path d="m178.06 105.33h13.31s42.63 3.67 43.31 24.75-26.89 63.19-26.89 63.19h-45.94s-52.85-87.94 16.21-87.94z" fill="#68e1fd"/><path d="m204.89 124.9s-9.62 13.72-5.6 24.4 5.81 27.79-25.17 11.22l-4.5-14.36-12.1-4.16-4.87 19.81 8.34 2.83a7.7 7.7 0 0 1 5 9.55c-1.11 3.4-3.85 6.76-10.27 7.41l6.17 11.63h45.94l6.09-9.91 16.74-36.77z" opacity=".08"/><path d="m169.93 91s-3.08-5.64-6.76-8.13-.67-10.5 5.8-11.93c4.84-1.08 7.61-2.67 7.65-5.4a1.61 1.61 0 0 1 2.57-1.19c2.22 1.67 4.49 4.4 3.39 8.18a8.31 8.31 0 0 1 -6 5.59l-4.36 1.16s5.84 7.87-2.29 11.72z" fill="#24285b"/><path d="m175.2 86.28s-1.23-2.55-3.07-1.46-.09 4.78 2.7 3.92z" fill="#f4a28c"/><path d="m230.06 70.85-25.29 19.64 31.91-6.79z" fill="#24285b"/><path d="m205.11 131.27c-3.52-12.86 11.91-22.43 22-13.65 4.81 4.2 8.91 9.6 10.15 16.31 3.57 19.28 15 36.06-2.5 47.48s-58.92-13.92-58.92-13.92l5.7-10.35s20.73 8.21 33.59 7.49c8.87-.49-5.05-15.2-10.02-33.36z" fill="#68e1fd"/><path d="m163.54 141.07h12.85v20.73h-12.85z" fill="#ffd200" transform="matrix(.9726544 .23225722 -.23225722 .9726544 39.82 -35.33)"/><path d="m205.11 131.27c-3.52-12.86 11.91-22.43 22-13.65 4.81 4.2 8.91 9.6 10.15 16.31 3.57 19.28 15 36.06-2.5 47.48s-58.92-13.92-58.92-13.92l5.7-10.35s20.73 8.21 33.59 7.49c8.87-.49-5.05-15.2-10.02-33.36z" fill="#fff" opacity=".3"/><path d="m180.78 158.44a12.71 12.71 0 0 0 -2.72-5.33c-2.24-2.68-3-3.87-6.09-3.81s-3.4 11.41 5.13 15.82z" fill="#f4a28c"/><path d="m207.79 193.27s-9.2 38.2 9.22 54.26l-6.49 6.07s-23.88-13.86-27.21-51.94z" fill="#24285b"/><path d="m146.24 84.32 3.84 6.79-28.08 44.25c-4.34 6.83-15.15 4-15.25-4.09 0-3.73 1.13-8.22 4.46-13.52 12.06-19.26 35.03-33.43 35.03-33.43z" fill="#68e1fd"/><path d="m147.45 67.73h2v10.51h-2z" fill="#c9c9c9" transform="matrix(.13260238 -.99116931 .99116931 .13260238 56.43 210.45)"/><path d="m153.04 58.08h2v10.51h-2z" fill="#c9c9c9" transform="matrix(.76906499 -.63917059 .63917059 .76906499 -4.91 113.09)"/><path d="m159.87 59.74h10.51v2h-10.51z" fill="#c9c9c9" transform="matrix(.09237059 -.9957247 .9957247 .09237059 89.39 219.54)"/><path d="m161.85 193.27s-9.44 35.66 9.17 61.95l7.52-.36s-10.9-35.57 5.29-48.58l24-13z" fill="#24285b"/></svg>